<?xml version="1.0" standalone="no"?>
<!DOCTYPE svg PUBLIC "-//W3C//DTD SVG 20010904//EN"
 "http://www.w3.org/TR/2001/REC-SVG-20010904/DTD/svg10.dtd">
<svg version="1.0" xmlns="http://www.w3.org/2000/svg"
 width="37.000000pt" height="39.000000pt" viewBox="0 0 37.000000 39.000000"
 preserveAspectRatio="xMidYMid meet">

<g transform="translate(0.000000,39.000000) scale(0.100000,-0.100000)"
fill="#000000" stroke="none">
<path d="M138 264 c-33 -17 -58 -86 -41 -112 13 -21 147 -30 169 -11 31 25 8
101 -37 125 -35 18 -57 17 -91 -2z m86 -5 c28 -13 49 -56 44 -91 -3 -22 -8
-23 -81 -26 -89 -3 -97 4 -78 67 16 54 62 74 115 50z"/>
<path d="M181 204 c0 -11 3 -14 6 -6 3 7 2 16 -1 19 -3 4 -6 -2 -5 -13z"/>
<path d="M221 204 c0 -11 3 -14 6 -6 3 7 2 16 -1 19 -3 4 -6 -2 -5 -13z"/>
</g>
</svg>
